<svg width="133" height="41" viewBox="0 0 133 41" fill="none" xmlns="http://www.w3.org/2000/svg">
<path d="M122.409 0.670784H10.5973C10.1897 0.670784 9.78703 0.670784 9.38054 0.672784C9.04027 0.674784 8.70271 0.680594 8.35918 0.685484C7.61286 0.693386 6.86829 0.75246 6.13195 0.862194C5.39665 0.974316 4.68438 1.1857 4.01923 1.48919C3.3549 1.79525 2.74787 2.19295 2.22019 2.66785C1.68973 3.14141 1.24756 3.68879 0.910662 4.28893C0.572839 4.88788 0.338591 5.52971 0.216009 6.19225C0.0922621 6.85395 0.0256726 7.52328 0.0168384 8.19424C0.00652418 8.50084 0.00543496 8.80846 0 9.1151V32.2293C0.00543496 32.5398 0.00652418 32.8406 0.0168384 33.1512C0.0256753 33.8221 0.0922648 34.4914 0.216009 35.1531C0.338253 35.816 0.572514 36.4582 0.910662 37.0574C1.2474 37.6556 1.68964 38.2007 2.22019 38.6717C2.74587 39.1487 3.35329 39.5466 4.01923 39.8504C4.68437 40.1547 5.39656 40.3673 6.13195 40.4812C6.86842 40.59 7.6129 40.6491 8.35918 40.658C8.70271 40.6648 9.04027 40.6687 9.38054 40.6687C9.78701 40.6707 10.1897 40.6707 10.5973 40.6707H122.409C122.808 40.6707 123.214 40.6707 123.614 40.6687C123.952 40.6687 124.299 40.6648 124.638 40.658C125.383 40.6496 126.126 40.5905 126.861 40.4812C127.599 40.3665 128.314 40.1539 128.982 39.8504C129.647 39.5465 130.254 39.1485 130.779 38.6717C131.309 38.1989 131.752 37.6541 132.093 37.0574C132.428 36.4578 132.66 35.8156 132.781 35.1531C132.905 34.4913 132.974 33.8222 132.987 33.1512C132.991 32.8406 132.991 32.5398 132.991 32.2293C133 31.866 133 31.5047 133 31.1355V10.2069C133 9.84067 133 9.4774 132.991 9.1151C132.991 8.80846 132.991 8.50084 132.987 8.1942C132.974 7.52318 132.905 6.854 132.781 6.19221C132.66 5.53005 132.428 4.88827 132.093 4.28889C131.407 3.08597 130.319 2.10681 128.982 1.4891C128.314 1.18635 127.599 0.975024 126.861 0.862104C126.126 0.751887 125.383 0.692792 124.638 0.685344C124.299 0.680464 123.952 0.674604 123.614 0.672654C123.214 0.670654 122.808 0.670654 122.409 0.670654V0.670784Z" fill="#A6A6A6"/>
<path d="M9.41184 39.6689C9.07336 39.6689 8.74306 39.665 8.40723 39.6583C7.71154 39.6502 7.01748 39.596 6.33073 39.4963C5.69037 39.3976 5.07004 39.2142 4.49019 38.952C3.91566 38.6919 3.39164 38.3509 2.9382 37.9421C2.47821 37.538 2.09524 37.0694 1.80448 36.5548C1.51051 36.0368 1.30707 35.4816 1.20124 34.9085C1.08695 34.2927 1.02511 33.67 1.01626 33.0458C1.00922 32.8363 1 32.1388 1 32.1388V9.19037C1 9.19037 1.00982 8.50352 1.01632 8.30173C1.02479 7.67854 1.08627 7.05683 1.20021 6.44199C1.30624 5.86732 1.50984 5.31051 1.80397 4.79084C2.09366 4.27656 2.4745 3.80759 2.93173 3.4021C3.38844 2.99275 3.91413 2.65001 4.48964 2.38636C5.06816 2.12498 5.68732 1.94283 6.32638 1.84601C7.01539 1.74524 7.71186 1.69076 8.40997 1.68303L9.41239 1.6709H123.582L124.597 1.68351C125.288 1.69087 125.978 1.74486 126.661 1.84503C127.307 1.94307 127.932 2.12649 128.517 2.38927C129.67 2.9206 130.609 3.7612 131.2 4.79326C131.49 5.30935 131.69 5.86161 131.795 6.43132C131.91 7.05121 131.975 7.6778 131.988 8.3061C131.991 8.58743 131.991 8.88963 131.991 9.19037C132 9.5629 132 9.91748 132 10.275V31.0658C132 31.4267 132 31.7788 131.991 32.1339C131.991 32.4569 131.991 32.7529 131.987 33.0575C131.974 33.6745 131.91 34.2899 131.797 34.8987C131.693 35.476 131.491 36.0355 131.197 36.5577C130.904 37.0668 130.524 37.5314 130.069 37.9343C129.615 38.3454 129.09 38.6884 128.514 38.9501C127.931 39.2143 127.306 39.3984 126.661 39.4963C125.974 39.5966 125.28 39.6507 124.585 39.6583C124.259 39.665 123.918 39.6689 123.588 39.6689L122.383 39.6709L9.41184 39.6689Z" fill="black"/>
<path d="M29.7973 20.9715C29.8081 20.1368 30.0298 19.3184 30.4418 18.5925C30.8538 17.8665 31.4428 17.2566 32.1539 16.8194C31.7021 16.1743 31.1062 15.6433 30.4134 15.2688C29.7205 14.8942 28.9499 14.6864 28.1627 14.6617C26.4835 14.4855 24.8555 15.6666 23.9998 15.6666C23.1275 15.6666 21.81 14.6792 20.3913 14.7084C19.4736 14.7381 18.5793 15.0049 17.7954 15.483C17.0115 15.961 16.3649 16.634 15.9184 17.4363C13.9844 20.7847 15.427 25.7058 17.2796 28.4124C18.2065 29.7377 19.2898 31.2182 20.7072 31.1657C22.0943 31.1081 22.6123 30.2812 24.2866 30.2812C25.9454 30.2812 26.4314 31.1657 27.8776 31.1323C29.366 31.1081 30.3038 29.8011 31.1981 28.4632C31.8641 27.5188 32.3766 26.4751 32.7166 25.3706C31.8518 25.0049 31.1139 24.3927 30.5948 23.6104C30.0757 22.8281 29.7983 21.9103 29.7973 20.9715Z" fill="white"/>
<path d="M27.0656 12.8817C27.8772 11.9075 28.277 10.6553 28.1802 9.39111C26.9403 9.52133 25.7951 10.1139 24.9726 11.0507C24.5704 11.5084 24.2624 12.0408 24.0662 12.6176C23.87 13.1944 23.7893 13.8042 23.8289 14.4121C24.449 14.4185 25.0625 14.2841 25.6232 14.019C26.1838 13.7539 26.6771 13.3651 27.0656 12.8817Z" fill="white"/>
<path d="M47.3308 27.8106H42.5974L41.4607 31.167H39.4558L43.9392 18.749H46.0222L50.5056 31.167H48.4665L47.3308 27.8106ZM43.0876 26.2617H46.8396L44.99 20.8145H44.9383L43.0876 26.2617Z" fill="white"/>
<path d="M60.1883 26.6406C60.1883 29.4541 58.6824 31.2617 56.4099 31.2617C55.8343 31.2918 55.2618 31.1592 54.758 30.8791C54.2542 30.5989 53.8395 30.1826 53.5613 29.6777H53.5183V34.1621H51.6599V22.1132H53.4588V23.6191H53.493C53.7839 23.1166 54.2056 22.7024 54.7133 22.4206C55.2209 22.1388 55.7954 21.9998 56.3758 22.0185C58.6736 22.0185 60.1883 23.8349 60.1883 26.6406ZM58.2781 26.6406C58.2781 24.8076 57.3308 23.6025 55.8855 23.6025C54.4656 23.6025 53.5105 24.833 53.5105 26.6406C53.5105 28.4648 54.4656 29.6865 55.8855 29.6865C57.3308 29.6865 58.2781 28.4902 58.2781 26.6406Z" fill="white"/>
<path d="M70.1531 26.6406C70.1531 29.4541 68.6472 31.2617 66.3748 31.2617C65.7991 31.2918 65.2266 31.1592 64.7228 30.879C64.219 30.5989 63.8043 30.1826 63.5262 29.6777H63.4832V34.1621H61.6248V22.1132H63.4236V23.6191H63.4578C63.7487 23.1166 64.1704 22.7024 64.6781 22.4206C65.1857 22.1388 65.7603 21.9998 66.3406 22.0185C68.6385 22.0185 70.1531 23.8349 70.1531 26.6406ZM68.2429 26.6406C68.2429 24.8076 67.2957 23.6025 65.8504 23.6025C64.4304 23.6025 63.4754 24.833 63.4754 26.6406C63.4754 28.4648 64.4304 29.6865 65.8504 29.6865C67.2957 29.6865 68.243 28.4902 68.243 26.6406H68.2429Z" fill="white"/>
<path d="M76.739 27.7071C76.8767 28.9385 78.073 29.7471 79.7078 29.7471C81.2742 29.7471 82.4012 28.9385 82.4012 27.8281C82.4012 26.8643 81.7215 26.2871 80.1121 25.8916L78.5027 25.5039C76.2225 24.9531 75.1638 23.8867 75.1638 22.1563C75.1638 20.0137 77.031 18.542 79.6824 18.542C82.3064 18.542 84.1053 20.0137 84.1658 22.1563H82.2898C82.1775 20.917 81.1531 20.169 79.656 20.169C78.1589 20.169 77.1345 20.9258 77.1345 22.0274C77.1345 22.9053 77.7888 23.4219 79.3894 23.8174L80.7576 24.1533C83.3054 24.7558 84.364 25.7793 84.364 27.5957C84.364 29.9189 82.5134 31.374 79.5701 31.374C76.8162 31.374 74.9568 29.9531 74.8367 27.707L76.739 27.7071Z" fill="white"/>
<path d="M88.3747 19.9707V22.1133H90.0964V23.585H88.3747V28.5762C88.3747 29.3516 88.7195 29.7129 89.4763 29.7129C89.6807 29.7093 89.8848 29.695 90.0876 29.6699V31.1328C89.7474 31.1964 89.4015 31.2252 89.0554 31.2187C87.2224 31.2187 86.5076 30.5302 86.5076 28.7744V23.585H85.1912V22.1133H86.5075V19.9707H88.3747Z" fill="white"/>
<path d="M91.0935 26.6406C91.0935 23.792 92.7712 22.002 95.3875 22.002C98.0125 22.002 99.6824 23.792 99.6824 26.6406C99.6824 29.4971 98.0212 31.2793 95.3875 31.2793C92.7546 31.2793 91.0935 29.4971 91.0935 26.6406ZM97.7888 26.6406C97.7888 24.6865 96.8933 23.5332 95.3874 23.5332C93.8816 23.5332 92.9871 24.6953 92.9871 26.6406C92.9871 28.6025 93.8816 29.7471 95.3874 29.7471C96.8933 29.7471 97.7888 28.6025 97.7888 26.6406H97.7888Z" fill="white"/>
<path d="M101.215 22.1134H102.987V23.6544H103.03C103.15 23.1731 103.432 22.7478 103.829 22.4499C104.225 22.152 104.712 21.9997 105.208 22.0187C105.422 22.0179 105.636 22.0412 105.845 22.088V23.8263C105.574 23.7437 105.292 23.7057 105.01 23.714C104.74 23.703 104.47 23.7506 104.221 23.8535C103.971 23.9564 103.746 24.1121 103.562 24.31C103.378 24.5079 103.239 24.7433 103.155 25C103.07 25.2566 103.042 25.5285 103.073 25.797V31.1671H101.215L101.215 22.1134Z" fill="white"/>
<path d="M114.413 28.5078C114.163 30.1514 112.562 31.2793 110.514 31.2793C107.881 31.2793 106.246 29.5146 106.246 26.6836C106.246 23.8438 107.889 22.002 110.436 22.002C112.941 22.002 114.516 23.7227 114.516 26.4678V27.1045H108.122V27.2168C108.092 27.55 108.134 27.8857 108.244 28.2015C108.354 28.5173 108.531 28.8061 108.761 29.0487C108.991 29.2912 109.271 29.482 109.58 29.6083C109.89 29.7346 110.223 29.7935 110.557 29.7812C110.997 29.8224 111.437 29.7207 111.814 29.4912C112.191 29.2618 112.483 28.9169 112.648 28.5078L114.413 28.5078ZM108.131 25.8057H112.657C112.674 25.5061 112.628 25.2063 112.524 24.925C112.419 24.6438 112.257 24.3873 112.049 24.1715C111.84 23.9558 111.589 23.7854 111.312 23.6712C111.034 23.557 110.736 23.5014 110.436 23.5078C110.134 23.506 109.834 23.5642 109.554 23.6789C109.274 23.7936 109.019 23.9627 108.805 24.1763C108.59 24.39 108.42 24.6439 108.305 24.9236C108.189 25.2032 108.13 25.503 108.131 25.8057V25.8057Z" fill="white"/>
<path d="M42.8545 9.40179C43.2441 9.37383 43.6351 9.43269 43.9992 9.57412C44.3633 9.71556 44.6915 9.93604 44.9601 10.2197C45.2286 10.5033 45.4309 10.843 45.5523 11.2143C45.6737 11.5855 45.7112 11.9791 45.6621 12.3666C45.6621 14.2729 44.6318 15.3686 42.8545 15.3686H40.6992V9.40179H42.8545ZM41.626 14.5248H42.751C43.0294 14.5414 43.308 14.4958 43.5665 14.3912C43.8251 14.2866 44.057 14.1256 44.2455 13.92C44.434 13.7145 44.5743 13.4695 44.6562 13.2028C44.738 12.9362 44.7594 12.6547 44.7187 12.3788C44.7564 12.104 44.7329 11.8242 44.6498 11.5595C44.5667 11.2949 44.426 11.0519 44.238 10.8479C44.0499 10.644 43.8191 10.4842 43.562 10.3799C43.3049 10.2757 43.028 10.2296 42.751 10.245H41.626V14.5248Z" fill="white"/>
<path d="M46.709 13.1152C46.6807 12.8193 46.7146 12.5207 46.8084 12.2386C46.9022 11.9566 47.054 11.6972 47.2539 11.4772C47.4539 11.2573 47.6976 11.0815 47.9694 10.9612C48.2413 10.8409 48.5353 10.7788 48.8326 10.7788C49.1298 10.7788 49.4238 10.8409 49.6957 10.9612C49.9675 11.0815 50.2112 11.2573 50.4112 11.4772C50.6111 11.6972 50.7629 11.9566 50.8567 12.2386C50.9506 12.5207 50.9844 12.8193 50.9561 13.1152C50.9849 13.4114 50.9515 13.7104 50.8579 13.9929C50.7643 14.2754 50.6126 14.5353 50.4126 14.7557C50.2127 14.9761 49.9688 15.1522 49.6966 15.2728C49.4245 15.3933 49.1302 15.4556 48.8326 15.4556C48.5349 15.4556 48.2406 15.3933 47.9685 15.2728C47.6964 15.1522 47.4525 14.9761 47.2525 14.7557C47.0525 14.5353 46.9008 14.2754 46.8072 13.9929C46.7136 13.7104 46.6802 13.4114 46.709 13.1152ZM50.042 13.1152C50.042 12.1391 49.6035 11.5683 48.834 11.5683C48.0616 11.5683 47.627 12.1391 47.627 13.1152C47.627 14.0991 48.0616 14.6655 48.834 14.6655C49.6036 14.6655 50.042 14.0952 50.042 13.1152H50.042Z" fill="white"/>
<path d="M56.6016 15.3687H55.6797L54.749 12.0522H54.6787L53.752 15.3687H52.8389L51.5977 10.8657H52.499L53.3057 14.3017H53.3721L54.2979 10.8657H55.1504L56.0762 14.3017H56.1465L56.9492 10.8657H57.8379L56.6016 15.3687Z" fill="white"/>
<path d="M58.8818 10.8658H59.7373V11.5811H59.8037C59.9164 11.3242 60.1064 11.1088 60.3472 10.965C60.5881 10.8212 60.8679 10.7561 61.1475 10.7788C61.3666 10.7624 61.5866 10.7954 61.7912 10.8755C61.9958 10.9556 62.1797 11.0807 62.3294 11.2415C62.4791 11.4024 62.5907 11.5949 62.6559 11.8047C62.7211 12.0145 62.7382 12.2363 62.7061 12.4536V15.3686H61.8174V12.6768C61.8174 11.9532 61.5029 11.5933 60.8457 11.5933C60.6969 11.5864 60.5484 11.6117 60.4104 11.6675C60.2723 11.7234 60.148 11.8084 60.0459 11.9168C59.9437 12.0251 59.8663 12.1543 59.8187 12.2955C59.7712 12.4366 59.7547 12.5863 59.7705 12.7344V15.3687H58.8818L58.8818 10.8658Z" fill="white"/>
<path d="M64.1221 9.10791H65.0107V15.3686H64.1221V9.10791Z" fill="white"/>
<path d="M66.2461 13.1153C66.2178 12.8193 66.2517 12.5207 66.3456 12.2387C66.4394 11.9566 66.5912 11.6972 66.7912 11.4773C66.9911 11.2573 67.2349 11.0815 67.5067 10.9612C67.7786 10.8409 68.0726 10.7788 68.3699 10.7788C68.6672 10.7788 68.9612 10.8409 69.2331 10.9612C69.5049 11.0815 69.7486 11.2573 69.9486 11.4773C70.1486 11.6972 70.3004 11.9566 70.3942 12.2387C70.4881 12.5207 70.522 12.8193 70.4937 13.1153C70.5225 13.4115 70.489 13.7105 70.3954 13.993C70.3018 14.2755 70.1501 14.5353 69.95 14.7558C69.75 14.9762 69.5061 15.1523 69.234 15.2728C68.9619 15.3934 68.6675 15.4556 68.3699 15.4556C68.0723 15.4556 67.7779 15.3934 67.5058 15.2728C67.2336 15.1523 66.9897 14.9762 66.7897 14.7558C66.5897 14.5353 66.438 14.2755 66.3444 13.993C66.2508 13.7105 66.2173 13.4115 66.2461 13.1153ZM69.5791 13.1153C69.5791 12.1392 69.1406 11.5684 68.3711 11.5684C67.5986 11.5684 67.1641 12.1392 67.1641 13.1153C67.1641 14.0992 67.5987 14.6656 68.3711 14.6656C69.1406 14.6656 69.5791 14.0953 69.5791 13.1153H69.5791Z" fill="white"/>
<path d="M71.4292 14.0952C71.4292 13.2847 72.0327 12.8174 73.104 12.751L74.3237 12.6807V12.292C74.3237 11.8164 74.0093 11.5478 73.4019 11.5478C72.9058 11.5478 72.562 11.73 72.4634 12.0483H71.603C71.6938 11.2749 72.4214 10.7788 73.4429 10.7788C74.5718 10.7788 75.2085 11.3408 75.2085 12.292V15.3686H74.353V14.7358H74.2827C74.14 14.9628 73.9396 15.1479 73.702 15.2721C73.4643 15.3963 73.198 15.4552 72.9302 15.4428C72.7411 15.4625 72.5501 15.4423 72.3693 15.3836C72.1886 15.3249 72.0221 15.229 71.8807 15.102C71.7393 14.9751 71.626 14.8199 71.5483 14.6465C71.4705 14.473 71.4299 14.2853 71.4292 14.0952ZM74.3237 13.7104V13.334L73.2241 13.4043C72.604 13.4458 72.3227 13.6567 72.3227 14.0537C72.3227 14.459 72.6743 14.6948 73.1577 14.6948C73.2994 14.7091 73.4425 14.6948 73.5785 14.6528C73.7145 14.6107 73.8406 14.5416 73.9494 14.4498C74.0582 14.358 74.1474 14.2452 74.2117 14.1182C74.276 13.9911 74.3141 13.8525 74.3237 13.7104Z" fill="white"/>
<path d="M76.3765 13.1152C76.3765 11.6924 77.1079 10.791 78.2456 10.791C78.527 10.7781 78.8063 10.8455 79.0508 10.9854C79.2954 11.1253 79.495 11.3319 79.6265 11.581H79.6929V9.10791H80.5815V15.3686H79.73V14.6572H79.6597C79.5181 14.9047 79.3115 15.1087 79.0622 15.2472C78.813 15.3857 78.5306 15.4534 78.2456 15.4429C77.1001 15.4429 76.3765 14.5415 76.3765 13.1152ZM77.2945 13.1152C77.2945 14.0703 77.7447 14.645 78.4976 14.645C79.2466 14.645 79.7095 14.062 79.7095 13.1192C79.7095 12.1807 79.2417 11.5894 78.4976 11.5894C77.7495 11.5894 77.2944 12.168 77.2944 13.1152H77.2945Z" fill="white"/>
<path d="M84.2583 13.1152C84.23 12.8193 84.2639 12.5207 84.3577 12.2386C84.4516 11.9566 84.6033 11.6972 84.8033 11.4772C85.0032 11.2573 85.2469 11.0815 85.5188 10.9612C85.7906 10.8409 86.0846 10.7788 86.3819 10.7788C86.6791 10.7788 86.9731 10.8409 87.245 10.9612C87.5168 11.0815 87.7605 11.2573 87.9605 11.4772C88.1604 11.6972 88.3122 11.9566 88.406 12.2386C88.4999 12.5207 88.5337 12.8193 88.5054 13.1152C88.5343 13.4114 88.5008 13.7104 88.4072 13.9929C88.3136 14.2754 88.162 14.5353 87.962 14.7557C87.762 14.9761 87.5181 15.1522 87.2459 15.2728C86.9738 15.3933 86.6795 15.4556 86.3819 15.4556C86.0842 15.4556 85.7899 15.3933 85.5178 15.2728C85.2457 15.1522 85.0018 14.9761 84.8018 14.7557C84.6018 14.5353 84.4501 14.2754 84.3565 13.9929C84.2629 13.7104 84.2295 13.4114 84.2583 13.1152ZM87.5913 13.1152C87.5913 12.1391 87.1529 11.5683 86.3833 11.5683C85.6109 11.5683 85.1763 12.1391 85.1763 13.1152C85.1763 14.0991 85.6109 14.6655 86.3833 14.6655C87.1529 14.6655 87.5913 14.0952 87.5913 13.1152Z" fill="white"/>
<path d="M89.6978 10.8658H90.5532V11.5811H90.6196C90.7323 11.3242 90.9223 11.1088 91.1632 10.965C91.404 10.8212 91.6838 10.7561 91.9634 10.7788C92.1825 10.7624 92.4025 10.7954 92.6071 10.8755C92.8117 10.9556 92.9956 11.0807 93.1453 11.2415C93.295 11.4024 93.4066 11.5949 93.4718 11.8047C93.537 12.0145 93.5541 12.2363 93.522 12.4536V15.3686H92.6333V12.6768C92.6333 11.9532 92.3189 11.5933 91.6616 11.5933C91.5129 11.5864 91.3644 11.6117 91.2263 11.6675C91.0883 11.7234 90.9639 11.8084 90.8618 11.9168C90.7597 12.0251 90.6822 12.1543 90.6346 12.2955C90.5871 12.4366 90.5707 12.5863 90.5864 12.7344V15.3687H89.6978V10.8658Z" fill="white"/>
<path d="M98.5435 9.74463V10.8862H99.5191V11.6348H98.5435V13.9502C98.5435 14.4219 98.7378 14.6284 99.1802 14.6284C99.2934 14.6281 99.4066 14.6212 99.5191 14.6079V15.3481C99.3595 15.3767 99.1978 15.3919 99.0356 15.3935C98.0474 15.3935 97.6538 15.0459 97.6538 14.1777V11.6347H96.939V10.8862H97.6538V9.74463H98.5435Z" fill="white"/>
<path d="M100.733 9.10791H101.614V11.5894H101.684C101.802 11.33 101.997 11.1134 102.243 10.9691C102.489 10.8248 102.773 10.7597 103.057 10.7827C103.275 10.7709 103.493 10.8072 103.695 10.8893C103.897 10.9713 104.079 11.097 104.227 11.2573C104.375 11.4177 104.486 11.6087 104.552 11.8169C104.618 12.025 104.637 12.2451 104.608 12.4614V15.3687H103.718V12.6807C103.718 11.9614 103.383 11.5972 102.755 11.5972C102.603 11.5846 102.449 11.6056 102.305 11.6587C102.161 11.7117 102.031 11.7956 101.923 11.9043C101.815 12.013 101.732 12.1441 101.68 12.2882C101.628 12.4323 101.608 12.5861 101.622 12.7388V15.3686H100.733L100.733 9.10791Z" fill="white"/>
<path d="M109.789 14.1529C109.669 14.5644 109.407 14.9204 109.05 15.1586C108.694 15.3967 108.265 15.5019 107.838 15.4556C107.542 15.4635 107.247 15.4066 106.974 15.2891C106.702 15.1716 106.458 14.9962 106.26 14.775C106.062 14.5539 105.915 14.2923 105.828 14.0085C105.742 13.7247 105.718 13.4254 105.758 13.1314C105.719 12.8365 105.743 12.5366 105.83 12.2519C105.916 11.9673 106.063 11.7045 106.26 11.4814C106.456 11.2583 106.699 11.0802 106.971 10.959C107.242 10.8378 107.537 10.7763 107.834 10.7789C109.087 10.7789 109.843 11.6349 109.843 13.0489V13.359H106.663V13.4088C106.65 13.574 106.67 13.7404 106.724 13.8971C106.779 14.0538 106.865 14.1976 106.978 14.319C107.091 14.4405 107.228 14.537 107.38 14.6024C107.533 14.6678 107.697 14.7006 107.863 14.6988C108.075 14.7243 108.291 14.686 108.481 14.5888C108.672 14.4916 108.83 14.3399 108.934 14.1529L109.789 14.1529ZM106.663 12.7017H108.938C108.949 12.5506 108.929 12.3988 108.878 12.2561C108.827 12.1134 108.746 11.9829 108.642 11.873C108.538 11.7632 108.411 11.6764 108.271 11.6182C108.132 11.56 107.981 11.5318 107.829 11.5352C107.676 11.5333 107.523 11.5622 107.381 11.6201C107.239 11.678 107.109 11.7639 107.001 11.8726C106.892 11.9813 106.806 12.1107 106.748 12.2531C106.69 12.3955 106.661 12.548 106.663 12.7017H106.663Z" fill="white"/>
</svg>
