<svg width="135" height="41" viewBox="0 0 135 41" fill="none" xmlns="http://www.w3.org/2000/svg">
<g clip-path="url(#clip0)">
<path fill-rule="evenodd" clip-rule="evenodd" d="M129.998 40.6709H5.00184C2.24512 40.6709 0 38.4165 0 35.6709V5.6709C0 2.91529 2.24512 0.670898 5.00184 0.670898H129.998C132.752 0.670898 135 2.91529 135 5.6709V35.6709C135 38.4165 132.752 40.6709 129.998 40.6709Z" fill="black"/>
<path fill-rule="evenodd" clip-rule="evenodd" d="M129.998 1.4714C132.31 1.4714 134.203 3.35918 134.203 5.6709V35.6709C134.203 37.9826 132.323 39.8704 129.998 39.8704H5.00184C2.68967 39.8704 0.797215 37.9826 0.797215 35.6709V5.6709C0.797215 3.35918 2.67725 1.4714 5.00184 1.4714H129.998ZM129.998 0.670898H5.00184C2.24512 0.670898 0 2.92526 0 5.6709V35.6709C0 38.4265 2.24512 40.6709 5.00184 40.6709H129.998C132.752 40.6709 135 38.4265 135 35.6709V5.6709C135 2.92526 132.752 0.670898 129.998 0.670898Z" fill="#A6A6A6"/>
<path d="M71.1184 13.9029C70.2169 13.9029 69.4569 13.5861 68.8559 12.9627C68.2599 12.3567 67.9271 11.5213 67.942 10.6684C67.942 9.75822 68.2499 8.98765 68.8559 8.37667C69.4545 7.75323 70.2144 7.43652 71.1159 7.43652C72.0075 7.43652 72.7675 7.75323 73.3784 8.37667C73.9844 9.0076 74.2923 9.77817 74.2923 10.6684C74.2824 11.5812 73.9745 12.3517 73.3784 12.9602C72.7799 13.5886 72.0199 13.9029 71.1184 13.9029ZM44.2939 13.9029C43.4123 13.9029 42.6473 13.5911 42.0215 12.9752C41.4006 12.3617 41.0852 11.5861 41.0852 10.6709C41.0852 9.75573 41.4006 8.98016 42.0215 8.3667C42.6349 7.75074 43.3998 7.43902 44.2939 7.43902C44.731 7.43902 45.1557 7.5263 45.563 7.70336C45.9628 7.87543 46.2882 8.10984 46.5291 8.39662L46.5887 8.46894L45.9157 9.13228L45.8461 9.04999C45.4661 8.59612 44.957 8.37418 44.284 8.37418C43.683 8.37418 43.1589 8.58864 42.7268 9.01258C42.2922 9.43902 42.0712 9.99762 42.0712 10.6734C42.0712 11.3492 42.2922 11.9078 42.7268 12.3343C43.1589 12.7582 43.683 12.9727 44.284 12.9727C44.9247 12.9727 45.4636 12.7582 45.8834 12.3343C46.1317 12.0849 46.2857 11.7358 46.3403 11.2944H44.1822V10.3617H47.2667L47.2791 10.4465C47.3015 10.6036 47.3238 10.7657 47.3238 10.9153C47.3238 11.7757 47.0655 12.4714 46.5539 12.9852C45.9728 13.5936 45.2128 13.9029 44.2939 13.9029ZM79.9597 13.7707H79.0086L76.0954 9.08989L76.1202 9.93278V13.7682H75.169V7.57119H76.2543L76.2841 7.61857L79.0235 12.0275L78.9986 11.1871V7.57119H79.9597V13.7707ZM63.9708 13.7707H63.0072V8.50386H61.3358V7.57119H65.6398V8.50386H63.9684V13.7707H63.9708ZM60.551 13.7707H59.5899V7.57119H60.551V13.7707ZM55.1494 13.7707H54.1883V8.50386H52.5168V7.57119H56.8208V8.50386H55.1494V13.7707ZM51.9084 13.7607H48.2228V7.57119H51.9084V8.50386H49.1864V10.2046H51.6426V11.1273H49.1864V12.828H51.9084V13.7607ZM69.5612 12.3218C69.9909 12.7532 70.5124 12.9702 71.1184 12.9702C71.7418 12.9702 72.2509 12.7582 72.6756 12.3218C73.0978 11.8979 73.3114 11.3418 73.3114 10.6709C73.3114 10.0001 73.0978 9.44151 72.6781 9.02006C72.2484 8.58864 71.7244 8.37169 71.1209 8.37169C70.4975 8.37169 69.9884 8.58366 69.5662 9.02006C69.144 9.444 68.9304 10.0001 68.9304 10.6709C68.9304 11.3418 69.1415 11.9004 69.5612 12.3218Z" fill="white"/>
<path fill-rule="evenodd" clip-rule="evenodd" d="M67.8526 22.4266C65.5056 22.4266 63.6032 24.2146 63.6032 26.6809C63.6032 29.1248 65.518 30.9353 67.8526 30.9353C70.1995 30.9353 72.1019 29.1348 72.1019 26.6809C72.1019 24.2146 70.1995 22.4266 67.8526 22.4266ZM67.8526 29.2495C66.5686 29.2495 65.4634 28.1822 65.4634 26.6709C65.4634 25.1373 66.5711 24.0924 67.8526 24.0924C69.1366 24.0924 70.2417 25.1373 70.2417 26.6709C70.2442 28.1921 69.1366 29.2495 67.8526 29.2495ZM58.5815 22.4266C56.2346 22.4266 54.3322 24.2146 54.3322 26.6809C54.3322 29.1248 56.247 30.9353 58.5815 30.9353C60.9285 30.9353 62.8309 29.1348 62.8309 26.6809C62.8309 24.2146 60.926 22.4266 58.5815 22.4266ZM58.5815 29.2495C57.2975 29.2495 56.1924 28.1822 56.1924 26.6709C56.1924 25.1373 57.3 24.0924 58.5815 24.0924C59.8655 24.0924 60.9707 25.1373 60.9707 26.6709C60.9707 28.1921 59.8655 29.2495 58.5815 29.2495ZM47.5496 23.7258V25.5263H51.8536C51.722 26.5363 51.3892 27.2819 50.8801 27.7931C50.2492 28.4266 49.2757 29.1148 47.5596 29.1148C44.9146 29.1148 42.8458 26.9702 42.8458 24.3143C42.8458 21.6585 44.9146 19.5138 47.5596 19.5138C48.9876 19.5138 50.0282 20.0799 50.8006 20.8031L52.0722 19.5263C50.9993 18.4939 49.5712 17.7034 47.5695 17.7034C43.9411 17.7034 40.8962 20.671 40.8962 24.3044C40.8962 27.9478 43.9386 30.9054 47.5695 30.9054C49.529 30.9054 50.9993 30.262 52.1616 29.05C53.3462 27.8605 53.7212 26.1822 53.7212 24.8281C53.7212 24.4066 53.6889 24.0276 53.6219 23.7059H47.5472C47.5496 23.7034 47.5496 23.7258 47.5496 23.7258ZM92.673 25.1273C92.3179 24.1722 91.245 22.4166 89.0446 22.4166C86.8641 22.4166 85.0511 24.1398 85.0511 26.6709C85.0511 29.06 86.8442 30.9253 89.2557 30.9253C91.1929 30.9253 92.3204 29.7358 92.7848 29.0375L91.3468 28.07C90.87 28.7807 90.2069 29.247 89.2656 29.247C88.3144 29.247 87.6488 28.8131 87.2068 27.9577L92.8717 25.6011C92.8717 25.6036 92.673 25.1273 92.673 25.1273ZM86.8963 26.5488C86.8516 24.9054 88.1679 24.07 89.1092 24.07C89.8517 24.07 90.4701 24.4365 90.6813 24.9702L86.8963 26.5488ZM82.2943 30.6709H84.1545V18.1722H82.2943V30.6709ZM79.2396 23.3717H79.1725C78.7528 22.8705 77.9556 22.4166 76.9373 22.4166C74.8239 22.4166 72.8768 24.2844 72.8768 26.6834C72.8768 29.0724 74.8139 30.9178 76.9373 30.9178C77.9432 30.9178 78.7528 30.4615 79.1725 29.9503H79.2396V30.5612C79.2396 32.1847 78.3753 33.06 76.9821 33.06C75.8421 33.06 75.1343 32.237 74.8462 31.5488L73.2294 32.2271C73.6939 33.3493 74.9331 34.7383 76.9796 34.7383C79.1601 34.7383 81.0079 33.449 81.0079 30.3044V22.6709H79.2495V23.3717C79.252 23.3717 79.2396 23.3717 79.2396 23.3717ZM77.1037 29.2495C75.8198 29.2495 74.7469 28.1722 74.7469 26.6834C74.7469 25.1822 75.8198 24.0949 77.1037 24.0949C78.3753 24.0949 79.3613 25.1946 79.3613 26.6834C79.3737 28.1722 78.3778 29.2495 77.1037 29.2495ZM101.383 18.1722H96.9348V30.6709H98.795V25.9378H101.385C103.444 25.9378 105.468 24.439 105.468 22.06C105.468 19.6809 103.452 18.1722 101.383 18.1722ZM101.437 24.1921H98.7925V19.9029H101.437C102.831 19.9029 103.618 21.0575 103.618 22.0475C103.618 23.0276 102.821 24.1921 101.437 24.1921ZM112.924 22.4041C111.573 22.4041 110.18 23.0051 109.603 24.3143L111.252 25.0026C111.608 24.3143 112.258 24.0799 112.946 24.0799C113.91 24.0799 114.883 24.6585 114.906 25.6909V25.8231C114.573 25.6335 113.843 25.3443 112.969 25.3443C111.188 25.3443 109.382 26.3218 109.382 28.1547C109.382 29.833 110.843 30.9103 112.469 30.9103C113.719 30.9103 114.406 30.3443 114.836 29.6884H114.903V30.656H116.696V25.868C116.696 23.6385 115.047 22.4041 112.924 22.4041ZM112.69 29.2495C112.082 29.2495 111.23 28.9502 111.23 28.1822C111.23 27.2146 112.293 26.848 113.199 26.848C114.019 26.848 114.407 27.0251 114.893 27.2695C114.759 28.3916 113.815 29.2395 112.69 29.2495ZM123.238 22.6709L121.102 28.0924H121.035L118.822 22.6709H116.82L120.141 30.2495L118.249 34.4615H120.186L125.294 22.6709H123.238ZM106.494 30.6709H108.354V18.1722H106.494V30.6709Z" fill="white"/>
<path fill-rule="evenodd" clip-rule="evenodd" d="M10.3913 8.20454C10.1032 8.51626 9.93677 8.99257 9.93677 9.61601V31.7282C9.93677 32.3517 10.1032 32.828 10.4012 33.1272L10.4782 33.1946L22.8164 20.8055V20.5287L10.4682 8.13721L10.3913 8.20454Z" fill="url(#paint0_linear)"/>
<path fill-rule="evenodd" clip-rule="evenodd" d="M26.9214 24.9477L22.8062 20.8155V20.5262L26.9214 16.394L27.0108 16.4489L31.8786 19.227C33.2718 20.015 33.2718 21.3167 31.8786 22.1147L27.0108 24.8928L26.9214 24.9477Z" fill="url(#paint1_linear)"/>
<path fill-rule="evenodd" clip-rule="evenodd" d="M27.0109 24.8928L22.8063 20.6709L10.3911 33.1372C10.8456 33.626 11.608 33.6809 12.4599 33.2046L27.0109 24.8928Z" fill="url(#paint2_linear)"/>
<path fill-rule="evenodd" clip-rule="evenodd" d="M27.0109 16.4488L12.4599 8.14959C11.608 7.66081 10.8431 7.72815 10.3911 8.21692L22.8063 20.6708L27.0109 16.4488Z" fill="url(#paint3_linear)"/>
<path opacity="0.2" fill-rule="evenodd" clip-rule="evenodd" d="M26.9214 24.8032L12.4697 33.0476C11.6625 33.5139 10.9423 33.4815 10.4779 33.0576L10.4009 33.1349L10.4779 33.2022C10.9423 33.6236 11.6625 33.6586 12.4697 33.1922L27.0208 24.893L26.9214 24.8032Z" fill="black"/>
<path opacity="0.12" fill-rule="evenodd" clip-rule="evenodd" d="M31.8787 21.9701L26.9092 24.8031L26.9986 24.8928L31.8663 22.1148C32.5642 21.7158 32.9069 21.1921 32.9069 20.6709C32.8647 21.1497 32.5095 21.6036 31.8787 21.9701Z" fill="black"/>
<path opacity="0.25" fill-rule="evenodd" clip-rule="evenodd" d="M12.46 8.29444L31.8788 19.3717C32.5096 19.7284 32.8648 20.1947 32.9194 20.671C32.9194 20.1498 32.5767 19.6261 31.8788 19.2271L12.46 8.1498C11.0668 7.3493 9.93677 8.01763 9.93677 9.61613V9.76077C9.93677 8.15977 11.0668 7.50391 12.46 8.29444Z" fill="white"/>
</g>
<defs>
<linearGradient id="paint0_linear" x1="21.7097" y1="9.37744" x2="1.93526" y2="14.6247" gradientUnits="userSpaceOnUse">
<stop stop-color="#00A0FF"/>
<stop offset="0.00657" stop-color="#00A1FF"/>
<stop offset="0.2601" stop-color="#00BEFF"/>
<stop offset="0.5122" stop-color="#00D2FF"/>
<stop offset="0.7604" stop-color="#00DFFF"/>
<stop offset="1" stop-color="#00E3FF"/>
</linearGradient>
<linearGradient id="paint1_linear" x1="33.6955" y1="20.6709" x2="9.59777" y2="20.6709" gradientUnits="userSpaceOnUse">
<stop stop-color="#FFE000"/>
<stop offset="0.4087" stop-color="#FFBD00"/>
<stop offset="0.7754" stop-color="#FFA500"/>
<stop offset="1" stop-color="#FF9C00"/>
</linearGradient>
<linearGradient id="paint2_linear" x1="24.7246" y1="22.9682" x2="8.76185" y2="49.7247" gradientUnits="userSpaceOnUse">
<stop stop-color="#FF3A44"/>
<stop offset="1" stop-color="#C31162"/>
</linearGradient>
<linearGradient id="paint3_linear" x1="7.26483" y1="0.849582" x2="14.3865" y2="12.7995" gradientUnits="userSpaceOnUse">
<stop stop-color="#32A071"/>
<stop offset="0.0685" stop-color="#2DA771"/>
<stop offset="0.4762" stop-color="#15CF74"/>
<stop offset="0.8009" stop-color="#06E775"/>
<stop offset="1" stop-color="#00F076"/>
</linearGradient>
<clipPath id="clip0">
<rect width="135" height="40" fill="white" transform="translate(0 0.670898)"/>
</clipPath>
</defs>
</svg>
