<svg width="20" height="20" viewBox="0 0 20 20" fill="none" xmlns="http://www.w3.org/2000/svg">
<g clip-path="url(#clip0)">
<path fill-rule="evenodd" clip-rule="evenodd" d="M17.8021 12.4118C17.8021 12.4118 19.4191 14.0878 19.8191 14.8634C19.8269 14.8746 19.8329 14.887 19.8371 14.9001C20.0001 15.1866 20.0401 15.4112 19.9601 15.5771C19.8251 15.851 19.3681 15.9885 19.2131 16H16.3551C16.1561 16 15.7421 15.9454 15.2381 15.5802C14.8531 15.2979 14.4701 14.833 14.0991 14.3785C13.5451 13.7037 13.0661 13.1181 12.5811 13.1181C12.5198 13.1179 12.459 13.1286 12.4011 13.1496C12.0341 13.2713 11.5681 13.8202 11.5681 15.2821C11.5681 15.7397 11.2241 16 10.9831 16H9.67409C9.22809 16 6.90609 15.8363 4.84709 13.5578C2.32409 10.7682 0.05809 5.17229 0.03609 5.12297C-0.10491 4.76089 0.19109 4.56358 0.51109 4.56358H3.39709C3.78409 4.56358 3.91009 4.80917 3.99809 5.02956C4.10009 5.28249 4.47809 6.29421 5.09809 7.43082C6.10209 9.28004 6.71909 10.0325 7.21209 10.0325C7.30471 10.0328 7.39577 10.0075 7.47609 9.95907C8.12009 9.58755 8.00009 7.17369 7.97009 6.67623C7.97009 6.57967 7.96909 5.59839 7.63909 5.12402C7.40309 4.78398 7.00109 4.65174 6.75809 4.60346C6.82309 4.50481 6.96109 4.35368 7.13809 4.26447C7.57909 4.03358 8.37609 4 9.16709 4H9.60609C10.4641 4.01259 10.6861 4.07032 10.9981 4.15323C11.6261 4.31065 11.6381 4.7378 11.5831 6.19241C11.5671 6.60801 11.5501 7.07609 11.5501 7.62708C11.5501 7.74462 11.5451 7.87581 11.5451 8.0091C11.5261 8.75529 11.5011 9.59594 12.0031 9.94123C12.0682 9.9838 12.1434 10.0063 12.2201 10.0063C12.3941 10.0063 12.9151 10.0063 14.3281 7.46126C14.9481 6.33724 15.4281 5.01172 15.4611 4.91202C15.4891 4.85639 15.5731 4.70002 15.6751 4.63705C15.7476 4.59653 15.8289 4.57629 15.9111 4.57828H19.3061C19.6761 4.57828 19.9271 4.63705 19.9761 4.78398C20.0581 5.02221 19.9601 5.74952 18.4101 7.94927C18.1491 8.31555 17.9201 8.6325 17.7191 8.90957C16.3141 10.8449 16.3141 10.9425 17.8021 12.4118Z" fill="#2787F5"/>
</g>
<defs>
<clipPath id="clip0">
<rect width="20" height="20" fill="white"/>
</clipPath>
</defs>
</svg>
